<svg width="14" height="14" viewBox="0 0 14 14" fill="none" xmlns="http://www.w3.org/2000/svg">
<path fill-rule="evenodd" clip-rule="evenodd" d="M13.5607 0.43934C13.2794 0.158035 12.8978 0 12.5 0H1.5C1.10217 0 0.720645 0.158035 0.43934 0.43934C0.158035 0.720644 0 1.10217 0 1.5V10C0 10.3978 0.158035 10.7794 0.43934 11.0607C0.720644 11.342 1.10217 11.5 1.5 11.5H7.20439L10.1873 13.8902C10.3374 14.0104 10.5431 14.034 10.7164 13.9507C10.8897 13.8675 11 13.6923 11 13.5V11.5H12.5C12.8978 11.5 13.2794 11.342 13.5607 11.0607C13.842 10.7794 14 10.3978 14 10V1.5C14 1.10217 13.842 0.720644 13.5607 0.43934ZM12.5 1C12.6326 1 12.7598 1.05268 12.8536 1.14645C12.9473 1.24021 13 1.36739 13 1.5V10C13 10.1326 12.9473 10.2598 12.8536 10.3535C12.7598 10.4473 12.6326 10.5 12.5 10.5H10.5C10.2239 10.5 10 10.7239 10 11V12.4586L7.69265 10.6098C7.60395 10.5387 7.49367 10.5 7.38 10.5H1.5C1.36739 10.5 1.24022 10.4473 1.14645 10.3535C1.05268 10.2598 1 10.1326 1 10V1.5C1 1.36739 1.05268 1.24021 1.14645 1.14645C1.24022 1.05268 1.36739 1 1.5 1H12.5Z" fill="white"/>
<path fill-rule="evenodd" clip-rule="evenodd" d="M7.19509 3.51922C7.00111 3.48063 6.80004 3.50043 6.61732 3.57612C6.43459 3.65181 6.27841 3.77998 6.16853 3.94443C6.05865 4.10888 6 4.30222 6 4.5C6 4.77614 5.77614 5 5.5 5C5.22386 5 5 4.77614 5 4.5C5 4.10444 5.1173 3.71776 5.33706 3.38886C5.55682 3.05996 5.86918 2.80362 6.23463 2.65224C6.60009 2.50087 7.00222 2.46126 7.39018 2.53843C7.77814 2.6156 8.13451 2.80608 8.41421 3.08579C8.69392 3.36549 8.8844 3.72186 8.96157 4.10982C9.03874 4.49778 8.99913 4.89992 8.84776 5.26537C8.69638 5.63082 8.44004 5.94318 8.11114 6.16294C7.92325 6.28849 7.71649 6.38059 7.5 6.43649V6.5C7.5 6.77614 7.27614 7 7 7C6.72386 7 6.5 6.77614 6.5 6.5V6C6.5 5.72386 6.72386 5.5 7 5.5C7.19778 5.5 7.39112 5.44135 7.55557 5.33147C7.72002 5.22159 7.84819 5.06541 7.92388 4.88268C7.99957 4.69996 8.01937 4.49889 7.98079 4.30491C7.9422 4.11093 7.84696 3.93275 7.70711 3.79289C7.56725 3.65304 7.38907 3.5578 7.19509 3.51922Z" fill="white"/>
<path d="M7 8C6.85166 8 6.70666 8.04399 6.58332 8.1264C6.45999 8.20881 6.36386 8.32594 6.30709 8.46299C6.25032 8.60003 6.23547 8.75083 6.26441 8.89632C6.29335 9.0418 6.36478 9.17544 6.46967 9.28033C6.57456 9.38522 6.7082 9.45665 6.85368 9.48559C6.99917 9.51453 7.14997 9.49967 7.28701 9.44291C7.42406 9.38614 7.54119 9.29001 7.6236 9.16668C7.70601 9.04334 7.75 8.89834 7.75 8.75C7.74741 8.55189 7.66756 8.36263 7.52747 8.22253C7.38737 8.08244 7.19811 8.00259 7 8V8Z" fill="white"/>
</svg>
