<svg width="43" height="33" viewBox="0 0 43 33" fill="none" xmlns="http://www.w3.org/2000/svg">
<path d="M17.536 24.448C17.536 26.5813 16.768 28.416 15.232 29.952C13.7813 31.4027 11.9467 32.128 9.728 32.128C6.656 32.128 4.26667 31.0613 2.56 28.928C0.853333 26.7093 0 24.1493 0 21.248C0 16.8107 1.32267 12.8 3.968 9.216C6.61333 5.54667 9.64267 2.47467 13.056 0L17.408 4.352C16.7253 5.12 15.872 6.016 14.848 7.04C13.824 7.97867 12.928 9.00267 12.16 10.112C11.4773 11.2213 11.136 12.3307 11.136 13.44C11.136 14.5493 11.648 15.5307 12.672 16.384C13.7813 17.2373 14.848 18.2613 15.872 19.456C16.9813 20.6507 17.536 22.3147 17.536 24.448ZM42.496 24.448C42.496 26.5813 41.728 28.416 40.192 29.952C38.7413 31.4027 36.9067 32.128 34.688 32.128C31.616 32.128 29.2267 31.0613 27.52 28.928C25.8133 26.7093 24.96 24.1493 24.96 21.248C24.96 16.8107 26.2827 12.8 28.928 9.216C31.5733 5.54667 34.6027 2.47467 38.016 0L42.368 4.352C41.6853 5.12 40.832 6.016 39.808 7.04C38.784 7.97867 37.888 9.00267 37.12 10.112C36.4373 11.2213 36.096 12.3307 36.096 13.44C36.096 14.5493 36.608 15.5307 37.632 16.384C38.7413 17.2373 39.808 18.2613 40.832 19.456C41.9413 20.6507 42.496 22.3147 42.496 24.448Z" fill="#CFCFCF"/>
</svg>
